<?xml version="1.0" encoding="utf-8"?>
<!-- Generator: Adobe Illustrator 19.2.1, SVG Export Plug-In . SVG Version: 6.00 Build 0)  -->
<svg version="1.1" id="Capa_1" xmlns="http://www.w3.org/2000/svg" xmlns:xlink="http://www.w3.org/1999/xlink" x="0px" y="0px"
	 width="452.497px" height="92.934px" viewBox="0 0 452.497 92.934" enable-background="new 0 0 452.497 92.934"
	 xml:space="preserve">
<g>
	<g>
		<path fill="#C01818" d="M99.468,42.506l13.616,11.612c2.567,2.433,4.158,5.909,4.158,9.741c0,7.34-5.877,13.294-13.142,13.294
			l-9.314,0.032H66.221l2.914-12.752l21.492,0.037c2.328,0,4.215-1.903,4.215-4.251c0-1.455-0.714-2.737-1.822-3.507L81.02,47.868
			c-3.194-2.423-5.26-6.305-5.26-10.654c0-7.364,5.883-13.314,13.136-13.314l31.062-0.022l-2.545,11.232h-15.061
			c-2.321,0-4.205,1.899-4.205,4.243c0,1.244,0.513,2.362,1.347,3.141L99.468,42.506z"/>
		<path fill="#C01818" d="M150.682,66.089h0.055c-2.324,0-4.243-1.899-4.205-4.255c0-0.497,0.118-0.879,0.233-1.256l5.757-25.547
			h9.597l2.547-11.157h-9.596l3.222-13.947h-18.396l-3.2,13.949h-10.043l-2.567,11.153h10.071l-7.421,32.477
			c-0.118,0.562-0.173,1.049-0.173,1.731c0,4.391,3.529,7.981,7.894,7.981l0,0l15.857-0.069l2.557-11.114
			C152.877,66.04,151.495,66.089,150.682,66.089"/>
		<path fill="#C01818" d="M353.28,66.089h0.041c-2.324,0-4.233-1.899-4.193-4.255c0-0.497,0.108-0.879,0.215-1.256l5.769-25.547
			h9.594l2.545-11.157h-9.58l3.184-13.947h-18.353l-3.231,13.949h-10.019l-2.567,11.153h10.073l-7.427,32.477
			c-0.124,0.562-0.193,1.049-0.193,1.731c0.01,4.391,3.531,7.981,7.888,7.981h0.014l15.877-0.069l2.539-11.114
			C355.453,66.04,354.105,66.089,353.28,66.089"/>
		<path fill="#C01818" d="M221.595,77.126c1.205-0.513,2.041-1.565,2.352-2.876l0.103-0.426l-0.053,0.099l8.915-38.912h-7.358
			l2.524-11.143h7.368l0.82-3.626l0.185-0.735c1.621-5.505,6.654-9.519,12.616-9.519l0.028-0.037h17.456l-2.037,8.953l-6.206-0.018
			c-1.995,0-3.628,1.4-4.093,3.261v-0.071l-0.428,1.79h9.588l-2.512,11.187h-9.615l-7.93,34.898
			c-0.84,4.107-4.424,7.192-8.742,7.192L221.595,77.126z"/>
		<path fill="#C01818" d="M186.912,64.725l-0.083,0.039c-1.061,0.712-2.342,1.114-3.707,1.114c-3.779,0-6.839-3.087-6.839-6.914
			c0-3.823,3.06-6.93,6.839-6.93l12.963,0.047C194.995,57.529,191.57,62.125,186.912,64.725 M219.164,30.781
			c0-3.823-3.07-6.906-6.837-6.906h-40.955l-2.502,11.082h28.276c1.179,0,2.135,0.936,2.135,2.113c0,0.162-0.01,0.313-0.049,0.469
			h-0.026l-1.126,4.897h-19.822c-10.157,0-18.396,8.351-18.396,18.635c0,0.152,0,0.319,0.01,0.475c0,0,0.006,0.528,0.018,0.869
			c0.28,9.594,8.892,16.246,18.272,16.246c1.179,0,2.135-0.087,3.464-0.315c3.77-0.674,6.557-1.751,9.12-3.766
			c1.244,1.573,3.196,2.545,5.337,2.545h17.308c-1.885-1.226-3.119-3.411-3.119-5.848c0-0.584,0.061-1.151,0.189-1.703l8.531-37.327
			v0.053C219.103,31.814,219.164,31.301,219.164,30.781"/>
		<path fill="#C01818" d="M50.621,37.555l-1.151,4.958H33.393l0.901-3.783c0.266-2.074,1.997-3.669,4.109-3.708l10.157,0.012
			c1.161,0,2.094,0.946,2.094,2.135C50.654,37.301,50.654,37.423,50.621,37.555 M63.71,23.879h-0.081H26.591l-0.136-0.065
			c-4.174,0-7.703,2.908-8.661,6.853L8.985,68.822c-0.104,0.475-0.136,0.925-0.136,1.427c0,3.827,3.072,6.924,6.849,6.924h44.403
			l2.902-12.797H33.659l0.059,0.022c-2.334,0-4.227-1.905-4.227-4.253c0-0.363,0.069-0.718,0.14-1.051l-0.022,0.037l1.427-6.555
			h34.705l4.704-20.51c0.065-0.422,0.099-0.848,0.099-1.28C70.547,26.978,67.493,23.879,63.71,23.879"/>
		<path fill="#C01818" d="M389.494,64.731l-0.071,0.034c-1.08,0.712-2.35,1.114-3.726,1.114c-3.772,0-6.812-3.087-6.812-6.914
			c0-3.829,3.042-6.93,6.812-6.93l12.971,0.039C397.581,57.523,394.155,62.115,389.494,64.731 M414.927,23.867h-40.975l-2.51,11.092
			h28.298c1.179,0,2.129,0.94,2.129,2.113c0,0.166-0.012,0.313-0.045,0.477l-0.032-0.01l-1.104,4.897h-19.83
			c-10.152,0-18.395,8.357-18.395,18.635v0.479c0,0,0.02,0.53,0.02,0.871c0.274,9.588,8.898,16.246,18.26,16.246
			c1.185,0,2.145-0.093,3.476-0.321c3.775-0.674,6.54-1.751,9.128-3.766c1.248,1.579,3.196,2.561,5.331,2.561h17.314
			c-1.897-1.242-3.139-3.427-3.139-5.863c0-0.578,0.069-1.151,0.207-1.703l8.523-37.325v0.049c0.108-0.487,0.177-0.996,0.177-1.52
			C421.756,26.95,418.687,23.867,414.927,23.867"/>
		<path fill="#C01818" d="M300.867,37.595l-1.134,4.966h-16.078l0.903-3.783c0.244-2.064,1.989-3.681,4.095-3.714l10.153,0.006
			c1.161,0,2.104,0.96,2.104,2.135C300.91,37.338,300.898,37.468,300.867,37.595 M313.974,23.906h-0.091H276.85l-0.13-0.059
			c-4.201,0-7.705,2.914-8.685,6.845l-8.801,38.175c-0.108,0.481-0.13,0.919-0.13,1.416c0,3.833,3.064,6.932,6.831,6.932h44.413
			l2.914-12.805h-29.354l0.055,0.022c-2.334,0-4.205-1.897-4.205-4.243c0-0.373,0.039-0.726,0.128-1.061l-0.049,0.045l1.455-6.577
			h34.717l4.676-20.516c0.081-0.404,0.122-0.82,0.122-1.252C320.807,27.005,317.753,23.906,313.974,23.906"/>
	</g>
	<g>
		<path fill="#C01818" d="M434.849,32.258h1.329l2.173,3.624h1.579l-2.378-3.73c1.287-0.136,2.202-0.775,2.202-2.303
			c0-1.729-1.021-2.439-3.087-2.439h-3.194v8.472h1.374v-3.624H434.849z M434.849,31.075v-2.476h1.688
			c0.832,0,1.839,0.124,1.839,1.142c0,1.232-0.931,1.335-1.956,1.335H434.849z M443.849,31.501c0-4.596-3.47-7.654-7.47-7.654
			c-4.069,0-7.525,3.056-7.525,7.654c0,4.357,3.125,7.65,7.525,7.65C440.379,39.15,443.849,36.106,443.849,31.501 M442.217,31.501
			c0,3.74-2.589,6.315-5.838,6.315c-3.649,0-5.899-2.839-5.899-6.315c0-3.712,2.567-6.315,5.899-6.315
			C439.628,25.184,442.217,27.788,442.217,31.501"/>
	</g>
</g>
</svg>
